<svg width="30" height="56" viewBox="0 0 30 56" fill="none" xmlns="http://www.w3.org/2000/svg">
<path d="M19.7414 1.86665C17.8516 4.37778 12.1484 4.37778 10.2586 1.86665C9.59441 0.98408 8.74743 0 7.64286 0H2C0.895431 0 0 0.895431 0 2V54C0 55.1046 0.895431 56 2 56H7.64286C8.74743 56 9.59441 55.0159 10.2586 54.1334C12.1484 51.6222 17.8516 51.6222 19.7414 54.1334C20.4056 55.0159 21.2526 56 22.3571 56H28C29.1046 56 30 55.1046 30 54V2C30 0.895431 29.1046 0 28 0H22.3571C21.2526 0 20.4056 0.984081 19.7414 1.86665Z" fill="#B7B7B7"/>
</svg>
