<svg width="24" height="30" viewBox="0 0 24 30" fill="none" xmlns="http://www.w3.org/2000/svg">
<path d="M7.44336 16.7289L10.6235 20.0805C11.0115 20.4895 11.6607 20.497 12.0582 20.0972L17.4434 14.6797" stroke="#2C3E50" stroke-width="2"/>
<path d="M8.30381 4.45813H8.11111H7L3 4.45813C1.89543 4.45813 1 5.35356 1 6.45813V27C1 28.1046 1.89543 29 3 29H21C22.1046 29 23 28.1046 23 27V6.45813C23 5.35356 22.1046 4.45813 21 4.45813H17L15.8889 4.45813H15.6962C15.3297 2.29375 13.7754 1 12 1C10.2246 1 8.67035 2.29375 8.30381 4.45813Z" stroke="#2C3E50" stroke-width="2"/>
</svg>
