<svg width="30" height="30" viewBox="0 0 30 30" fill="none" xmlns="http://www.w3.org/2000/svg">
<path d="M22.5016 8.95C22.4266 8.9375 22.3391 8.9375 22.2641 8.95C20.5391 8.8875 19.1641 7.475 19.1641 5.725C19.1641 3.9375 20.6016 2.5 22.3891 2.5C24.1766 2.5 25.6141 3.95 25.6141 5.725C25.6016 7.475 24.2266 8.8875 22.5016 8.95Z" stroke="#2C3E50" stroke-width="2" stroke-linecap="round" stroke-linejoin="round"/>
<path d="M21.2133 18.05C22.9258 18.3375 24.8133 18.0375 26.1383 17.15C27.9008 15.975 27.9008 14.05 26.1383 12.875C24.8008 11.9875 22.8883 11.6875 21.1758 11.9875" stroke="#2C3E50" stroke-width="2" stroke-linecap="round" stroke-linejoin="round"/>
<path d="M7.45625 8.95C7.53125 8.9375 7.61875 8.9375 7.69375 8.95C9.41875 8.8875 10.7937 7.475 10.7937 5.725C10.7937 3.9375 9.35625 2.5 7.56875 2.5C5.78125 2.5 4.34375 3.95 4.34375 5.725C4.35625 7.475 5.73125 8.8875 7.45625 8.95Z" stroke="#2C3E50" stroke-width="2" stroke-linecap="round" stroke-linejoin="round"/>
<path d="M8.74687 18.05C7.03437 18.3375 5.14687 18.0375 3.82188 17.15C2.05938 15.975 2.05938 14.05 3.82188 12.875C5.15938 11.9875 7.07187 11.6875 8.78437 11.9875" stroke="#2C3E50" stroke-width="2" stroke-linecap="round" stroke-linejoin="round"/>
<path d="M14.9977 18.2879C14.9227 18.2754 14.8352 18.2754 14.7602 18.2879C13.0352 18.2254 11.6602 16.8129 11.6602 15.0629C11.6602 13.2754 13.0977 11.8379 14.8852 11.8379C16.6727 11.8379 18.1102 13.2879 18.1102 15.0629C18.0977 16.8129 16.7227 18.2379 14.9977 18.2879Z" stroke="#2C3E50" stroke-width="2" stroke-linecap="round" stroke-linejoin="round"/>
<path d="M11.3609 22.2254C9.59844 23.4004 9.59844 25.3254 11.3609 26.5004C13.3609 27.8379 16.6359 27.8379 18.6359 26.5004C20.3984 25.3254 20.3984 23.4004 18.6359 22.2254C16.6484 20.9004 13.3609 20.9004 11.3609 22.2254Z" stroke="#2C3E50" stroke-width="2" stroke-linecap="round" stroke-linejoin="round"/>
</svg>
