<svg width="26" height="30" viewBox="0 0 26 30" fill="none" xmlns="http://www.w3.org/2000/svg">
<path d="M7 4.76923H2C1.44772 4.76923 1 5.21695 1 5.76923V9.61539M7 4.76923V1.27273C7 1.1221 7.1221 1 7.27273 1V1C7.42335 1 7.54545 1.1221 7.54545 1.27273V4.76923M7 4.76923H7.54545M7.54545 4.76923H18.4545M18.4545 4.76923V1.54545C18.4545 1.24421 18.6988 1 19 1V1C19.3012 1 19.5455 1.24421 19.5455 1.54545V4.76923M18.4545 4.76923H19.5455M19.5455 4.76923H24C24.5523 4.76923 25 5.21695 25 5.76923V9.61539M1 9.61539V28C1 28.5523 1.44772 29 2 29H24C24.5523 29 25 28.5523 25 28V9.61539M1 9.61539H25" stroke="#2C3E50" stroke-width="2"/>
<rect x="6.2849" y="13.9231" width="3.27273" height="3.23077" fill="#2C3E50"/>
<rect x="11.9099" y="13.9231" width="3.27273" height="3.23077" fill="#2C3E50"/>
<rect x="17.363" y="13.9231" width="3.27273" height="3.23077" fill="#2C3E50"/>
<rect x="17.363" y="19.3076" width="3.27273" height="3.23077" fill="#2C3E50"/>
<rect x="11.9099" y="19.3079" width="3.27273" height="3.23077" fill="#2C3E50"/>
<rect x="6.28502" y="19.3076" width="3.27273" height="3.23077" fill="#2C3E50"/>
</svg>
