<svg width="30" height="30" viewBox="0 0 30 30" fill="none" xmlns="http://www.w3.org/2000/svg">
<path fill-rule="evenodd" clip-rule="evenodd" d="M0 15C0 23.2843 6.71573 30 15 30C23.2843 30 30 23.2843 30 15C30 6.71573 23.2843 0 15 0C6.71573 0 0 6.71573 0 15ZM12.2504 21.8749L12.5056 18.0513L12.5054 18.0512L19.461 11.7743C19.7662 11.5034 19.3943 11.3713 18.9891 11.617L10.4049 17.0326L6.69706 15.8753C5.89633 15.6302 5.89058 15.0799 6.87684 14.6843L21.3256 9.11297C21.9855 8.81337 22.6224 9.27147 22.3705 10.2815L19.9099 21.8769C19.7381 22.7009 19.2402 22.8979 18.5504 22.5173L14.8021 19.748L13.0004 21.4999C12.9947 21.5055 12.9891 21.511 12.9834 21.5164C12.7819 21.7126 12.6152 21.8749 12.2504 21.8749Z" fill="white"/>
</svg>
