<svg width="79" height="105" viewBox="0 0 79 105" fill="none" xmlns="http://www.w3.org/2000/svg">
<path d="M32.248 68.008C32.248 63.016 33.352 58.888 35.56 55.624C37.864 52.36 41.176 48.76 45.496 44.824C48.664 41.944 50.968 39.544 52.408 37.624C53.944 35.608 54.712 33.352 54.712 30.856C54.712 27.304 53.272 24.52 50.392 22.504C47.608 20.392 43.864 19.336 39.16 19.336C34.648 19.336 30.616 20.296 27.064 22.216C23.608 24.04 20.68 26.632 18.28 29.992L0.856 19.768C4.888 13.624 10.312 8.872 17.128 5.51199C24.04 2.152 32.2 0.471998 41.608 0.471998C52.648 0.471998 61.48 2.824 68.104 7.52799C74.824 12.232 78.184 18.76 78.184 27.112C78.184 31.048 77.512 34.504 76.168 37.48C74.92 40.456 73.336 43 71.416 45.112C69.592 47.128 67.192 49.48 64.216 52.168C60.664 55.336 58.072 58.024 56.44 60.232C54.808 62.344 53.992 64.936 53.992 68.008H32.248ZM43.192 104.152C39.256 104.152 35.944 102.904 33.256 100.408C30.664 97.816 29.368 94.696 29.368 91.048C29.368 87.4 30.664 84.376 33.256 81.976C35.848 79.48 39.16 78.232 43.192 78.232C47.224 78.232 50.536 79.48 53.128 81.976C55.72 84.376 57.016 87.4 57.016 91.048C57.016 94.696 55.672 97.816 52.984 100.408C50.392 102.904 47.128 104.152 43.192 104.152Z" fill="#1A5CFF"/>
</svg>
